<?xml version="1.0" encoding="utf-8"?>
<!-- Generator: Adobe Illustrator 21.0.2, SVG Export Plug-In . SVG Version: 6.00 Build 0)  -->
<svg version="1.1" id="Capa_1" xmlns="http://www.w3.org/2000/svg" xmlns:xlink="http://www.w3.org/1999/xlink" x="0px" y="0px"
	 viewBox="0 0 550 31.946" enable-background="new 0 0 550 31.946" xml:space="preserve">
<g id="Automóvil">
</g>
<rect x="-592" y="-260.724" fill-rule="evenodd" clip-rule="evenodd" fill="#B0B256" width="550" height="199.116"/>
<path fill="#495E67" d="M-42-80.813c-0.242,0.01-0.487,0.018-0.743,0.018c-9.882,0-9.882-7.567-19.766-7.567
	c-9.887,0-9.887,7.567-19.77,7.567c-9.886,0-9.886-7.567-19.771-7.567c-9.883,0-9.883,7.567-19.768,7.567
	c-9.886,0-9.886-7.567-19.77-7.567c-9.884,0-9.884,7.567-19.77,7.567c-9.883,0-9.883-7.567-19.766-7.567
	c-9.888,0-9.888,7.567-19.773,7.567c-9.882,0-9.882-7.567-19.768-7.567c-9.379,0-9.863,6.81-18.336,7.505
	c-8.477-0.694-8.961-7.505-18.344-7.505c-9.889,0-9.889,7.567-19.775,7.567c-9.885,0-9.885-7.567-19.772-7.567
	c-9.886,0-9.886,7.567-19.771,7.567c-9.888,0-9.888-7.567-19.773-7.567c-9.885,0-9.885,7.567-19.771,7.567
	c-9.886,0-9.886-7.567-19.77-7.567c-9.883,0-9.883,7.567-19.769,7.567c-9.881,0-9.881-7.567-19.765-7.567
	c-9.887,0-9.887,7.567-19.771,7.567c-9.886,0-9.886-7.567-19.772-7.567c-9.883,0-9.883,7.567-19.768,7.567
	c-9.886,0-9.886-7.567-19.77-7.567c-9.884,0-9.884,7.567-19.771,7.567c-9.883,0-9.883-7.567-19.766-7.567
	c-9.888,0-9.888,7.567-19.772,7.567c-9.882,0-9.882-7.567-19.768-7.567c-9.379,0-9.864,6.81-18.336,7.505v24.44h550V-80.813z"/>
<g>
	<g>
		<g>
			<polyline fill-rule="evenodd" clip-rule="evenodd" fill="#014262" points="-578.034,-111.365 -556.973,-111.865 
				-517.442,-109.451 -421.719,-110.276 -384.324,-105.681 -379.976,-115.678 -386.172,-140.645 -557.418,-140.645 			"/>
			<path fill="#0081BA" d="M-505.367-128.213c0,0-1.218-27.752-78.521-21.483l5.475,25.958c0,0-6.694,8.952-1.825,12.533
				l23.267-0.66c-0.285-1.362-0.438-2.775-0.438-4.225c0-11.341,9.194-20.534,20.536-20.534c11.341,0,20.535,9.193,20.535,20.534
				c0,2.326-0.392,4.556-1.103,6.639l95.724-0.825c-0.545-1.844-0.842-3.792-0.842-5.813c0-11.341,9.193-20.534,20.537-20.534
				c11.34,0,20.533,9.193,20.533,20.534c0,3.8-1.035,7.356-2.834,10.409l5.566,0.742l-1.218-10.739l-0.608-8.954l6.088-18.8
				c0,0,9.13-4.476,9.13-14.323C-365.366-157.755-454.237-161.334-505.367-128.213z"/>
			<ellipse fill="#F8B133" stroke="#005980" cx="-582.969" cy="-143.182" rx="3.461" ry="1.971"/>
			<ellipse fill="#F8B133" stroke="#005980" cx="-581.956" cy="-139.83" rx="3.461" ry="1.971"/>
			<ellipse fill="#F8B133" stroke="#005980" cx="-580.943" cy="-136.662" rx="3.462" ry="1.97"/>
			<path fill="#FFFFFF" d="M-515.451-111.365h88.77c0,0-7.518-7.369,0.358-11.054c0,0-9.667-1.055-6.803,6.843L-515.451-111.365z"/>
			<path fill="#0081BA" d="M-432.324-153.28l-6.694-24.166l8.781,0.769c0,0-61.738-41.054-122.002,29.665l28.609,7.162
				c0,0-7.913-39.388,79.133-37.596L-432.324-153.28z"/>
			<path fill="#FFFFFF" d="M-373.474-154.57c0,0-71.399-4.363-131.129,28.503c0,0,60.521-28.503,125.392-26.761L-373.474-154.57z"/>
			<path fill="#FFFFFF" d="M-506.381-126.649c0,0-0.992-18.907-45.096-21.812C-551.477-148.462-515.875-144.682-506.381-126.649z"/>
			<path fill="#005980" d="M-438.758-116.467c0,0-0.742-0.896,0.246-5.369l-79.941,5.817L-438.758-116.467z"/>
			<ellipse fill="#FFFFFF" stroke="#005980" stroke-width="0.9747" cx="-530.021" cy="-156.411" rx="3.959" ry="5.818"/>
			<polyline fill="#0081BA" points="-439.966,-151.806 -447.035,-157.749 -445.217,-163.987 -453.096,-150.619 -448.047,-155.372 
				-441.379,-151.215 			"/>
			<path fill="#005980" d="M-478.836-147.148l-1.732-13.572c1.214-2.081,4.848-0.594,4.848-0.594l3.584,13.47l15.203-1.587h0.402
				c-25.047,4.454-48.48,19.607-48.48,19.607c-2.22-10.994-11.716-13.369-11.716-13.369L-478.836-147.148z"/>
			<path fill="#0081BA" d="M-554.703-149.431c0,0-6.263-18.718-13.737-23.471c0,0,9.495,10.991,12.122,23.471H-554.703z"/>
			<ellipse fill="#0081BA" cx="-568.037" cy="-172.902" rx="1.212" ry="1.781"/>
			<path fill="#005980" d="M-376.506-143.562c0,0-10.822-2.395-45.259,2.396c0,0,41.767-2.222,41.188,0.345
				c-0.584,2.566-16.389,2.311-16.389,2.311s16.038,0.597,14.758,3.336c-1.278,2.737-6.708,2.102-6.708,2.102l7.522,3.886
				c0,0,3.828-8.935,4.888-14.03"/>
			<path fill="#005980" d="M-579.707-146.307c0,0,25.616-5.566,51.814,9.415c0,0-32.312-1.926-48.903,7.491
				c0,0,8.587-9.415,31.437-10.272c0,0-15.718-4.067-32.164,1.284c0,0,1.892-4.496,25.033-4.923
				C-552.49-143.311-568.646-147.806-579.707-146.307z"/>
			<path fill="#005980" d="M-436.977-178.949c0,0-69.152-5.262-82.264,21.041C-519.24-157.908-514.135-187.214-436.977-178.949z"/>
		</g>
		<path fill="#F8B133" stroke="#005980" d="M-368.854-150.983c2.42-3.577,3.166-5.715,1.544-5.751
			c-1.886-0.04-5.705,2.905-8.123,6.48c-2.42,3.577-2.211,6.88-0.637,6.48C-374.509-144.183-371.27-147.405-368.854-150.983z"/>
	</g>
	<g>
		<g>
			<ellipse fill-rule="evenodd" clip-rule="evenodd" fill="#1D1D1B" cx="-399.875" cy="-116.917" rx="19.156" ry="19.282"/>
			<ellipse fill-rule="evenodd" clip-rule="evenodd" fill="#CECEB8" cx="-399.875" cy="-116.918" rx="13.238" ry="13.327"/>
			<g>
				<path fill-rule="evenodd" clip-rule="evenodd" fill="#BD1622" d="M-398.916-126.663c-0.527-3.868-1.39-3.868-1.917,0
					c-0.527,3.868-4.066,6.469-7.864,5.781c-3.799-0.688-4.064,0.141-0.592,1.842c3.473,1.701,4.824,5.91,3.004,9.354
					c-1.82,3.442-1.123,3.955,1.551,1.14c2.673-2.815,7.047-2.815,9.721,0c2.673,2.815,3.369,2.303,1.548-1.14
					c-1.821-3.443-0.47-7.652,3.004-9.354c3.474-1.701,3.208-2.53-0.591-1.842C-394.852-120.194-398.39-122.795-398.916-126.663z"/>
			</g>
			<ellipse fill-rule="evenodd" clip-rule="evenodd" fill="#B1B28F" cx="-399.876" cy="-116.918" rx="4.504" ry="4.535"/>
		</g>
	</g>
	<g>
		<g>
			<ellipse fill-rule="evenodd" clip-rule="evenodd" fill="#1D1D1B" cx="-533.98" cy="-116.02" rx="19.155" ry="19.282"/>
			<ellipse fill-rule="evenodd" clip-rule="evenodd" fill="#CECEB8" cx="-533.98" cy="-116.02" rx="13.239" ry="13.327"/>
			<g>
				<path fill-rule="evenodd" clip-rule="evenodd" fill="#BD1622" d="M-533.021-125.766c-0.526-3.868-1.389-3.868-1.916,0
					c-0.527,3.868-4.066,6.469-7.865,5.78c-3.799-0.688-4.065,0.142-0.592,1.844c3.473,1.701,4.825,5.91,3.004,9.353
					c-1.82,3.442-1.122,3.955,1.551,1.14c2.674-2.815,7.048-2.815,9.721,0c2.673,2.815,3.369,2.303,1.549-1.14
					c-1.821-3.442-0.47-7.651,3.004-9.353c3.473-1.702,3.207-2.531-0.592-1.844C-528.956-119.297-532.494-121.897-533.021-125.766z"
					/>
			</g>
			<ellipse fill-rule="evenodd" clip-rule="evenodd" fill="#B1B28F" cx="-533.981" cy="-116.021" rx="4.504" ry="4.534"/>
		</g>
	</g>
</g>
<rect y="-241.724" fill-rule="evenodd" clip-rule="evenodd" fill="#B0B256" width="550" height="199.116"/>
<path fill="#495E67" d="M550,7.549c-0.242,0.01-0.487,0.018-0.743,0.018c-9.882,0-9.882-7.567-19.766-7.567
	c-9.887,0-9.887,7.567-19.771,7.567c-9.886,0-9.886-7.567-19.772-7.567c-9.883,0-9.883,7.567-19.768,7.567
	c-9.886,0-9.886-7.567-19.77-7.567c-9.884,0-9.884,7.567-19.771,7.567c-9.883,0-9.883-7.567-19.766-7.567
	c-9.888,0-9.888,7.567-19.773,7.567c-9.882,0-9.882-7.567-19.768-7.567c-9.379,0-9.863,6.811-18.336,7.505
	C344.523,6.812,344.039,0,334.656,0c-9.889,0-9.889,7.567-19.775,7.567c-9.885,0-9.885-7.567-19.772-7.567
	c-9.886,0-9.886,7.567-19.771,7.567C265.45,7.567,265.45,0,255.564,0c-9.885,0-9.885,7.567-19.771,7.567
	c-9.886,0-9.886-7.567-19.77-7.567c-9.883,0-9.883,7.567-19.768,7.567c-9.881,0-9.881-7.567-19.765-7.567
	c-9.887,0-9.887,7.567-19.77,7.567c-9.886,0-9.886-7.567-19.771-7.567c-9.883,0-9.883,7.567-19.768,7.567
	c-9.886,0-9.886-7.567-19.77-7.567s-9.884,7.567-19.771,7.567C67.759,7.567,67.759,0,57.876,0c-9.888,0-9.888,7.567-19.772,7.567
	C28.222,7.567,28.222,0,18.336,0C8.957,0,8.472,6.811,0,7.505v24.44h550V7.549z"/>
<g>
	<g>
		<g>
			<polyline fill-rule="evenodd" clip-rule="evenodd" fill="#014262" points="26.623,-294.966 47.685,-295.466 87.215,-293.052 
				182.939,-293.877 220.333,-289.281 224.682,-299.278 218.485,-324.246 47.239,-324.246 			"/>
			<path fill="#0081BA" d="M99.29-311.814c0,0-1.218-27.752-78.521-21.483l5.475,25.958c0,0-6.694,8.952-1.825,12.533l23.267-0.66
				c-0.285-1.362-0.438-2.775-0.438-4.225c0-11.341,9.194-20.534,20.536-20.534c11.341,0,20.535,9.193,20.535,20.534
				c0,2.326-0.392,4.556-1.104,6.639l95.724-0.825c-0.545-1.844-0.842-3.792-0.842-5.814c0-11.341,9.193-20.534,20.537-20.534
				c11.34,0,20.533,9.193,20.533,20.534c0,3.8-1.035,7.356-2.834,10.409l5.566,0.742l-1.218-10.739l-0.608-8.954l6.088-18.8
				c0,0,9.13-4.476,9.13-14.323C239.291-341.355,150.42-344.935,99.29-311.814z"/>
			<ellipse fill="#F8B133" stroke="#005980" cx="21.688" cy="-326.782" rx="3.461" ry="1.971"/>
			<ellipse fill="#F8B133" stroke="#005980" cx="22.701" cy="-323.43" rx="3.461" ry="1.971"/>
			<ellipse fill="#F8B133" stroke="#005980" cx="23.714" cy="-320.263" rx="3.462" ry="1.97"/>
			<path fill="#FFFFFF" d="M89.206-294.966h88.77c0,0-7.518-7.369,0.358-11.054c0,0-9.667-1.055-6.803,6.843L89.206-294.966z"/>
			<path fill="#0081BA" d="M172.333-336.881l-6.694-24.166l8.781,0.769c0,0-61.738-41.054-122.002,29.665l28.609,7.162
				c0,0-7.913-39.388,79.133-37.596L172.333-336.881z"/>
			<path fill="#FFFFFF" d="M231.184-338.171c0,0-71.399-4.363-131.129,28.503c0,0,60.52-28.503,125.392-26.761L231.184-338.171z"/>
			<path fill="#FFFFFF" d="M98.276-310.25c0,0-0.992-18.907-45.096-21.812C53.181-332.062,88.782-328.282,98.276-310.25z"/>
			<path fill="#005980" d="M165.899-300.067c0,0-0.742-0.895,0.246-5.369l-79.941,5.817L165.899-300.067z"/>
			<ellipse fill="#FFFFFF" stroke="#005980" stroke-width="0.9747" cx="74.636" cy="-340.012" rx="3.959" ry="5.818"/>
			<polyline fill="#0081BA" points="164.691,-335.406 157.622,-341.35 159.44,-347.588 151.561,-334.22 156.61,-338.973 
				163.278,-334.815 			"/>
			<path fill="#005980" d="M125.821-330.748l-1.732-13.572c1.214-2.081,4.848-0.594,4.848-0.594l3.584,13.47l15.203-1.587h0.402
				c-25.047,4.454-48.481,19.607-48.481,19.607c-2.22-10.994-11.716-13.369-11.716-13.369L125.821-330.748z"/>
			<path fill="#0081BA" d="M49.954-333.031c0,0-6.263-18.718-13.737-23.471c0,0,9.495,10.991,12.122,23.471H49.954z"/>
			<ellipse fill="#0081BA" cx="36.621" cy="-356.502" rx="1.212" ry="1.781"/>
			<path fill="#005980" d="M228.151-327.163c0,0-10.822-2.395-45.259,2.396c0,0,41.768-2.222,41.188,0.345
				c-0.584,2.566-16.389,2.311-16.389,2.311s16.038,0.597,14.758,3.336c-1.278,2.737-6.708,2.102-6.708,2.102l7.523,3.886
				c0,0,3.828-8.935,4.888-14.03"/>
			<path fill="#005980" d="M24.95-329.907c0,0,25.616-5.566,51.814,9.415c0,0-32.312-1.926-48.903,7.491
				c0,0,8.587-9.415,31.437-10.272c0,0-15.718-4.067-32.164,1.284c0,0,1.892-4.496,25.033-4.923
				C52.167-326.912,36.012-331.406,24.95-329.907z"/>
			<path fill="#005980" d="M167.681-362.55c0,0-69.152-5.262-82.264,21.041C85.417-341.509,90.522-370.814,167.681-362.55z"/>
		</g>
		<path fill="#F8B133" stroke="#005980" d="M235.803-334.584c2.42-3.577,3.166-5.715,1.544-5.751
			c-1.886-0.04-5.705,2.905-8.123,6.48c-2.42,3.577-2.211,6.88-0.637,6.479C230.148-327.783,233.388-331.006,235.803-334.584z"/>
	</g>
	<g>
		<g>
			<ellipse fill-rule="evenodd" clip-rule="evenodd" fill="#1D1D1B" cx="204.782" cy="-300.518" rx="19.156" ry="19.282"/>
			<ellipse fill-rule="evenodd" clip-rule="evenodd" fill="#CECEB8" cx="204.782" cy="-300.518" rx="13.238" ry="13.327"/>
			<g>
				<path fill-rule="evenodd" clip-rule="evenodd" fill="#BD1622" d="M205.741-310.264c-0.527-3.868-1.39-3.868-1.917,0
					c-0.527,3.868-4.066,6.469-7.864,5.781c-3.799-0.689-4.065,0.141-0.592,1.842c3.473,1.701,4.824,5.91,3.004,9.353
					c-1.82,3.442-1.123,3.955,1.551,1.14c2.673-2.815,7.047-2.815,9.721,0c2.673,2.815,3.369,2.303,1.548-1.14
					c-1.821-3.443-0.47-7.652,3.004-9.353s3.208-2.53-0.591-1.842C209.806-303.795,206.268-306.396,205.741-310.264z"/>
			</g>
			<ellipse fill-rule="evenodd" clip-rule="evenodd" fill="#B1B28F" cx="204.781" cy="-300.519" rx="4.504" ry="4.535"/>
		</g>
	</g>
	<g>
		<g>
			<ellipse fill-rule="evenodd" clip-rule="evenodd" fill="#1D1D1B" cx="70.677" cy="-299.62" rx="19.155" ry="19.282"/>
			<ellipse fill-rule="evenodd" clip-rule="evenodd" fill="#CECEB8" cx="70.677" cy="-299.621" rx="13.239" ry="13.327"/>
			<g>
				<path fill-rule="evenodd" clip-rule="evenodd" fill="#BD1622" d="M71.636-309.366c-0.526-3.868-1.389-3.868-1.916,0
					c-0.527,3.868-4.066,6.469-7.865,5.78c-3.799-0.688-4.064,0.142-0.592,1.844c3.473,1.701,4.825,5.91,3.004,9.353
					c-1.82,3.442-1.122,3.955,1.551,1.14c2.674-2.815,7.048-2.815,9.721,0c2.673,2.815,3.369,2.303,1.549-1.14
					c-1.821-3.442-0.47-7.651,3.004-9.353c3.473-1.702,3.207-2.531-0.592-1.844C75.701-302.897,72.163-305.498,71.636-309.366z"/>
			</g>
			<ellipse fill-rule="evenodd" clip-rule="evenodd" fill="#B1B28F" cx="70.677" cy="-299.621" rx="4.504" ry="4.534"/>
		</g>
	</g>
</g>
<path fill="#F8B133" stroke="#005980" d="M531.018-338.395c2.42-3.577,3.166-5.715,1.544-5.751c-1.886-0.04-5.705,2.905-8.123,6.48
	c-2.42,3.577-2.211,6.88-0.637,6.479C525.363-331.594,528.602-334.817,531.018-338.395z"/>
<g>
	<g>
		<ellipse fill-rule="evenodd" clip-rule="evenodd" fill="#1D1D1B" cx="349.064" cy="-309.675" rx="19.156" ry="19.282"/>
		<ellipse fill-rule="evenodd" clip-rule="evenodd" fill="#CECEB8" cx="349.064" cy="-309.676" rx="13.238" ry="13.327"/>
		<g>
			<path fill-rule="evenodd" clip-rule="evenodd" fill="#BD1622" d="M350.023-319.421c-0.527-3.868-1.39-3.868-1.917,0
				c-0.527,3.868-4.066,6.469-7.864,5.781c-3.799-0.689-4.064,0.141-0.592,1.842c3.473,1.701,4.824,5.91,3.004,9.353
				c-1.82,3.442-1.123,3.955,1.551,1.14c2.673-2.815,7.047-2.815,9.721,0c2.673,2.815,3.369,2.303,1.548-1.14
				c-1.821-3.443-0.47-7.652,3.004-9.353c3.474-1.701,3.208-2.53-0.591-1.842C354.088-312.952,350.55-315.553,350.023-319.421z"/>
		</g>
		<ellipse fill-rule="evenodd" clip-rule="evenodd" fill="#B1B28F" cx="349.064" cy="-309.676" rx="4.504" ry="4.535"/>
	</g>
</g>
</svg>
