<?xml version="1.0" encoding="utf-8"?>
<!-- Generator: Adobe Illustrator 21.0.2, SVG Export Plug-In . SVG Version: 6.00 Build 0)  -->
<svg version="1.1" id="Capa_1" xmlns="http://www.w3.org/2000/svg" xmlns:xlink="http://www.w3.org/1999/xlink" x="0px" y="0px"
	 viewBox="0 0 324 235.84" enable-background="new 0 0 324 235.84" xml:space="preserve">
<path fill="#090809" d="M272.934,122.189c-1.532,63.879-51.744,107.929-109.07,106.987
	c-62.366-1.025-107.836-50.781-106.193-110.469c1.71-62.115,52.427-106.426,110.848-104.604
	C227.733,15.949,272.652,63.913,272.934,122.189z M263.791,121.731c0.021-54.465-43.925-98.548-98.362-98.671
	c-54.431-0.123-98.639,43.87-98.741,98.26c-0.102,54.624,43.934,98.84,98.514,98.916
	C219.485,220.311,263.77,176.064,263.791,121.731z"/>
<path fill="#F9DA58" d="M263.791,121.731c-0.021,54.333-44.306,98.58-98.59,98.505c-54.58-0.076-98.616-44.292-98.514-98.916
	c0.102-54.39,44.31-98.382,98.741-98.26C219.866,23.183,263.812,67.266,263.791,121.731z M155.231,132.652c0-0.021,0-0.041,0-0.062
	c-22.251,0-44.501,0-66.752,0c-0.846,0-1.695,0.038-2.539-0.002c-2.443-0.117-1.864,1.69-1.859,3.013
	c0.005,1.317-0.582,3.321,1.846,2.978c4.279-0.605,6.606,0.589,5.695,5.378c-0.062,0.327,0.151,0.702,0.215,1.059
	c2.42,13.488,8.352,25.488,16.266,36.449c8.985,12.443,20.273,22.312,35.569,26.009c28.223,6.821,52.758-0.486,72.838-21.278
	c13.621-14.104,16.845-31.011,10.745-49.708c-0.908-2.781-2.083-3.951-5.273-3.927C199.734,132.732,177.482,132.652,155.231,132.652
	z M199.132,114.846c8.819,0,17.64-0.082,26.457,0.054c2.351,0.036,3.359-0.748,4.056-2.978c2.925-9.355,2.78-18.577-0.908-27.653
	c-8.596-21.158-32.612-27.914-49.274-13.919c-11.704,9.83-16.23,28.032-10.674,42.327c0.734,1.889,1.786,2.204,3.523,2.193
	C181.252,114.816,190.192,114.845,199.132,114.846z M105.819,114.846c4.716,0,9.432,0,14.147,0c13.844,0,14.187-0.068,14.549-14.266
	c0.349-13.717-4.207-25.425-16.006-33.445c-9.684-6.582-26.414-5.993-34.271,7.236c-7.17,12.072-8.661,24.611-4.532,37.971
	c0.635,2.053,1.654,2.561,3.622,2.538C90.825,114.792,98.322,114.845,105.819,114.846z"/>
<path fill="#090809" d="M155.231,132.652c22.251,0,44.502,0.08,66.752-0.09c3.19-0.024,4.365,1.146,5.273,3.927
	c6.101,18.697,2.877,35.604-10.745,49.708c-20.08,20.791-44.615,28.099-72.838,21.278c-15.296-3.697-26.584-13.567-35.569-26.009
	c-7.914-10.961-13.846-22.96-16.266-36.449c-0.064-0.357-0.277-0.732-0.215-1.059c0.911-4.789-1.416-5.983-5.695-5.378
	c-2.428,0.343-1.842-1.661-1.846-2.978c-0.005-1.323-0.584-3.129,1.859-3.013c0.844,0.04,1.693,0.002,2.539,0.002
	c22.251,0,44.501,0,66.752,0C155.231,132.611,155.231,132.631,155.231,132.652z M203.201,189.269
	c0.232-0.191,0.464-0.382,0.696-0.573c0.486,0.025,0.76-0.206,0.827-0.686c0.276-0.216,0.552-0.431,0.828-0.647
	c0.531-0.232,1.154-0.354,1.579-0.712c13.374-11.253,19.615-26.095,15.525-44.143c-0.699-3.085-2.056-3.946-5.146-3.937
	c-38.172,0.107-76.345,0.071-114.517,0.072c-0.846,0-1.691,0.012-2.537,0.009c-2.181-0.006-3.121,0.865-3.274,3.251
	c-0.151,2.352,1.085,4.11,1.624,6.146c3.225,12.184,8.884,23.19,16.788,32.945c7.067,8.723,15.289,16.081,26.44,19.316
	c4.874,2.639,10.244,3.282,15.622,3.622c13.099,0.828,25.201-2.708,36.675-8.774c0.788,0.125,1.406-0.028,1.56-0.947
	c0.675-0.408,1.35-0.816,2.025-1.224c0.535,0.076,0.874-0.139,0.995-0.674c0.395-0.269,0.79-0.537,1.185-0.806
	c0.544,0.088,0.865-0.142,0.969-0.681c0.262-0.195,0.524-0.389,0.786-0.584C202.591,190.321,203.121,190.106,203.201,189.269z"/>
<path fill="#090809" d="M199.132,114.845c-8.94,0-17.88-0.03-26.82,0.025c-1.736,0.011-2.788-0.304-3.523-2.193
	c-5.556-14.295-1.031-32.497,10.674-42.327c16.663-13.994,40.678-7.238,49.274,13.919c3.687,9.076,3.833,18.297,0.908,27.653
	c-0.697,2.23-1.705,3.014-4.056,2.978C216.772,114.764,207.952,114.846,199.132,114.845z M208.649,71.241
	c-7.629-3.391-14.895-2.745-21.847,1.372c-10.944,6.481-16.681,21.46-13.382,34.174c0.432,1.663,1.204,2.052,2.757,2.048
	c15.346-0.039,30.692-0.03,46.037-0.009c1.178,0.002,2.065-0.104,2.392-1.522c1.521-6.58,1.357-13.015-1.15-19.504
	c-6.537,5.637-12.988,5.913-17.545,0.975C201.309,83.787,202.267,77.251,208.649,71.241z"/>
<path fill="#090809" d="M105.819,114.845c-7.497-0.001-14.995-0.054-22.49,0.035c-1.969,0.023-2.988-0.485-3.622-2.538
	c-4.129-13.36-2.637-25.9,4.532-37.971c7.857-13.23,24.587-13.818,34.271-7.236c11.8,8.02,16.356,19.728,16.006,33.445
	c-0.362,14.198-0.705,14.266-14.549,14.266C115.251,114.846,110.535,114.846,105.819,114.845z M112.603,71.089
	c-7.095-3.242-15.994-2.154-20.119,2.649c-8.197,9.544-10.483,20.651-8.076,32.858c0.279,1.415,0.776,2.274,2.565,2.262
	c12.799-0.086,25.598-0.054,38.397-0.039c1.199,0.001,2.057-0.173,2.332-1.614c1.212-6.338,1.218-12.582-0.914-18.854
	c-7.661,5.314-13.874,5.11-18.036-0.421C104.832,82.719,106.185,76.504,112.603,71.089z"/>
<path fill="#851A44" d="M142.034,200.311c-11.151-3.236-19.372-10.594-26.44-19.316c-7.903-9.755-13.563-20.761-16.788-32.945
	c-0.539-2.036-1.775-3.794-1.624-6.146c0.153-2.386,1.092-3.257,3.274-3.251c0.846,0.002,1.691-0.009,2.537-0.009
	c38.173-0.001,76.345,0.034,114.517-0.072c3.09-0.009,4.446,0.851,5.146,3.937c4.09,18.048-2.151,32.889-15.525,44.143
	c-0.425,0.358-1.048,0.48-1.579,0.711c0.424-1.551-0.639-2.477-1.496-3.458c-3.295-3.77-7.172-6.808-11.732-8.888
	C171.527,165.528,147.134,176.916,142.034,200.311z"/>
<path fill="#F8BDDD" d="M142.034,200.311c5.099-23.394,29.493-34.783,50.29-25.294c4.56,2.08,8.436,5.118,11.732,8.888
	c0.857,0.98,1.919,1.907,1.496,3.458c-0.277,0.216-0.552,0.432-0.829,0.648c-0.509-0.053-0.788,0.171-0.826,0.685
	c-0.232,0.191-0.464,0.382-0.697,0.574c-0.697-0.018-1.182,0.258-1.35,0.973c-0.262,0.195-0.524,0.389-0.786,0.584
	c-0.508-0.037-0.847,0.167-0.968,0.68c-0.395,0.269-0.79,0.537-1.185,0.806c-0.511-0.04-0.858,0.162-0.995,0.674
	c-0.675,0.408-1.35,0.816-2.026,1.225c-0.71,0.003-1.268,0.255-1.559,0.946c-11.474,6.066-23.576,9.603-36.675,8.774
	C152.278,203.592,146.908,202.95,142.034,200.311z"/>
<path fill="#851A44" d="M201.851,190.242c0.168-0.716,0.653-0.991,1.35-0.973C203.121,190.106,202.591,190.321,201.851,190.242z"/>
<path fill="#851A44" d="M194.331,195.158c0.291-0.691,0.849-0.943,1.559-0.946C195.737,195.13,195.119,195.283,194.331,195.158z"/>
<path fill="#851A44" d="M203.897,188.695c0.038-0.514,0.317-0.738,0.826-0.685C204.657,188.489,204.383,188.72,203.897,188.695z"/>
<path fill="#851A44" d="M200.096,191.507c0.121-0.513,0.46-0.717,0.968-0.68C200.961,191.365,200.64,191.595,200.096,191.507z"/>
<path fill="#851A44" d="M197.916,192.987c0.137-0.512,0.484-0.714,0.995-0.674C198.79,192.847,198.451,193.062,197.916,192.987z"/>
<path fill="#FAFAFA" d="M208.649,71.241c-6.382,6.01-7.34,12.546-2.736,17.534c4.557,4.938,11.008,4.662,17.545-0.975
	c2.507,6.489,2.671,12.924,1.15,19.504c-0.328,1.418-1.214,1.523-2.392,1.522c-15.346-0.021-30.692-0.031-46.037,0.009
	c-1.552,0.004-2.325-0.385-2.757-2.048c-3.299-12.714,2.438-27.693,13.382-34.174C193.754,68.496,201.02,67.849,208.649,71.241z"/>
<path fill="#FAFAFA" d="M112.603,71.089c-6.418,5.415-7.772,11.63-3.85,16.841c4.162,5.531,10.375,5.735,18.036,0.421
	c2.132,6.272,2.126,12.516,0.914,18.854c-0.275,1.44-1.134,1.615-2.332,1.614c-12.799-0.016-25.599-0.047-38.397,0.039
	c-1.79,0.012-2.286-0.847-2.565-2.262c-2.407-12.207-0.121-23.314,8.076-32.858C96.61,68.935,105.509,67.847,112.603,71.089z"/>
</svg>
