<?xml version="1.0" encoding="utf-8"?>
<!-- Generator: Adobe Illustrator 21.0.2, SVG Export Plug-In . SVG Version: 6.00 Build 0)  -->
<svg version="1.1" id="Capa_1" xmlns="http://www.w3.org/2000/svg" xmlns:xlink="http://www.w3.org/1999/xlink" x="0px" y="0px"
	 viewBox="0 0 324 235.84" enable-background="new 0 0 324 235.84" xml:space="preserve">
<path fill="#F9BF36" d="M178.502,226.169c-18.692,0.474-37.299,0.023-55.457-5.195c-9.265-2.662-17.533-7.038-24.346-14.002
	c-2.698-2.758-5.573-5.347-8.419-7.957c-1.829-1.679-3.77-3.291-6.092-4.202c-6.196-2.432-9.445-7.225-11.184-13.364
	c-1.464-5.166-1.889-10.472-1.979-15.782c-0.167-9.831-0.163-19.666-0.092-29.498c0.037-5.18,0.628-10.319,2.173-15.304
	c1.451-4.68,4.213-8.136,8.724-10.357c9.631-4.742,19.729-8.299,29.731-12.11c3.47-1.322,6.89-2.777,10.366-4.084
	c10.554-3.969,17.987-11.614,24.34-20.548c7.557-10.628,12.548-22.47,16.497-34.812c1.953-6.103,3.816-12.248,6.503-18.081
	c4.727-10.263,10.435-13.308,22.515-10.043c7.18,1.941,11.252,7.132,12.917,14.099c2.44,10.215,2.633,20.441-0.562,30.624
	c-3.411,10.873-8.276,21.152-12.567,31.667c-1.591,3.898-3.413,7.752-3.464,12.1c-6.074-0.026-11.157,2.55-15.628,6.331
	c-7.158,6.053-7.058,15.812-3.8,23.473c0.48,1.13,0.948,2.202,1.152,3.472c0.611,3.803,0.058,7.521-0.504,11.23
	c-2.051,13.527-8.933,24.187-19.484,32.685c-1.975,1.591-4.293,2.785-5.874,4.843c-0.563,0.733-1.277,1.52-0.533,2.534
	c0.704,0.961,1.545,1.451,2.822,0.954c1.089-0.424,2.165-0.838,3.139-1.496c6.204-4.191,11.427-9.386,15.797-15.449
	c2.498-3.467,4.635-7.152,6.481-11.371c1.398,2.037,2.519,3.93,4.434,5.092c0.421,0.255,0.985,0.574,0.87,1.135
	c-0.138,0.675-0.841,0.363-1.296,0.487c-5.779,1.577-10.333,4.819-11.827,10.765c-1.664,6.624,0.341,12.621,4.892,17.704
	c0.891,0.995,1.983,1.811,3.025,2.747c-1.123,0.82-2.309,1.206-3.238,2.08c-4.049,3.803-5.175,8.413-4.568,13.841
	c0.667,5.966,3.414,10.366,8.488,13.437C174.338,224.956,176.506,225.333,178.502,226.169z"/>
<path fill="#E48D16" d="M178.502,226.169c-1.996-0.836-4.163-1.213-6.05-2.355c-5.074-3.071-7.821-7.471-8.488-13.437
	c-0.607-5.428,0.519-10.038,4.568-13.841c0.93-0.873,2.115-1.26,3.238-2.08c-1.041-0.936-2.133-1.751-3.025-2.747
	c-4.551-5.082-6.555-11.079-4.892-17.704c1.494-5.947,6.047-9.188,11.827-10.765c0.454-0.124,1.158,0.188,1.296-0.487
	c0.115-0.562-0.449-0.88-0.87-1.135c-1.914-1.162-3.036-3.055-4.434-5.092c-1.846,4.219-3.982,7.904-6.481,11.371
	c-4.369,6.063-9.592,11.258-15.797,15.449c-0.974,0.658-2.05,1.071-3.139,1.496c-1.277,0.497-2.118,0.007-2.822-0.954
	c-0.743-1.014-0.03-1.802,0.533-2.534c1.581-2.057,3.9-3.252,5.874-4.843c10.55-8.497,17.432-19.158,19.484-32.685
	c0.562-3.71,1.116-7.427,0.504-11.23c-0.204-1.27-0.672-2.342-1.152-3.472c-3.258-7.661-3.358-17.419,3.8-23.473
	c4.472-3.782,9.555-6.357,15.628-6.331c0.296,0.481,0.592,0.963,0.888,1.444c-0.15,0.972-1.09,0.853-1.683,1.158
	c-5.541,2.849-10.016,6.627-10.768,13.261c-0.528,4.654-0.811,9.459,3.376,12.85c2.923,2.367,6.549,3.057,10.218,3.229
	c7.933,0.373,15.775-0.524,23.621-1.644c6.658-0.95,13.375-1.488,20.065-2.209c-0.441,1.417-0.451,2.76,0.682,3.902
	c-1.402,0.645-2.923,0.665-4.414,0.832c-5.758,0.644-11.521,1.241-17.274,1.927c-5.247,0.626-10.488,1.308-15.722,2.032
	c-4.375,0.606-8.77,1.096-12.991,2.548c-3.697,1.271-5.978,3.56-6.65,7.562c-0.255,1.519,0.07,2.867,0.155,4.293
	c0.283,4.769,2.588,8.208,6.793,10.417c2.955,1.552,6.122,2.231,9.436,2.296c6.696,0.132,13.384-0.132,20.072-0.429
	c4.356-0.193,8.711,0.051,13.083-0.328c3.191-0.276,6.502-0.637,9.71,0.289c-1.378,1.409-1.292,3.067-0.818,4.792
	c-0.248,0.299-0.551,0.445-0.953,0.397c-3.674-0.438-7.356-0.776-11.061-0.78c-9.538-0.008-19.077-0.097-28.607,0.429
	c-3.482,0.192-6.978,0.189-10.448,0.498c-2.596,0.231-5.164,0.779-7.512,2.066c-2.563,1.405-4.506,3.388-4.885,6.323
	c-1.156,8.955,4.875,14.712,12.031,16.021c8.073,1.477,16.3,1.591,24.466,2.139c5.72,0.384,11.448,0.73,17.175,1.056
	c-1.164,1.067-1.436,2.348-0.917,3.819c-6.48-0.851-12.981-1.264-19.523-1.345c-7.475-0.092-14.945-0.9-22.421,0.039
	c-3.062,0.385-6.121,0.868-8.427,3.101c-3.481,3.372-5.108,7.444-3.476,12.244c1.634,4.805,5.159,7.905,10.095,8.612
	c7.526,1.079,15.126,1.655,22.741,1.902c2.753,0.089,5.492,0.554,8.26,0.412c1.155-0.059,0.504,0.41,0.235,0.773
	C201.294,226.405,189.925,227.284,178.502,226.169z"/>
<path fill="#F9BF36" d="M236.699,162.751c-3.208-0.925-6.519-0.565-9.71-0.289c-4.372,0.378-8.727,0.134-13.083,0.328
	c-6.688,0.297-13.375,0.561-20.072,0.429c-3.314-0.065-6.481-0.744-9.436-2.296c-4.205-2.209-6.51-5.647-6.793-10.417
	c-0.085-1.427-0.41-2.774-0.155-4.293c0.672-4.001,2.953-6.29,6.65-7.562c4.222-1.452,8.617-1.942,12.991-2.548
	c5.234-0.725,10.475-1.407,15.722-2.032c5.753-0.686,11.516-1.284,17.274-1.927c1.491-0.167,3.012-0.186,4.414-0.832
	c1.783,0.766,3.721,0.467,5.576,0.815c9.67,1.813,15.487,10.211,13.316,19.373c-1.468,6.194-6.967,10.528-13.72,10.812
	C238.667,162.354,237.63,162.188,236.699,162.751z"/>
<path fill="#F9BF36" d="M233.822,127.411c-6.691,0.72-13.407,1.258-20.065,2.209c-7.846,1.12-15.688,2.017-23.621,1.644
	c-3.669-0.173-7.295-0.862-10.218-3.229c-4.187-3.39-3.903-8.196-3.376-12.85c0.752-6.634,5.227-10.412,10.768-13.261
	c0.593-0.305,1.533-0.187,1.683-1.158c3.81-0.541,7.605-1.241,11.432-1.595c11.411-1.055,22.84-1.166,34.185,0.611
	c9.955,1.559,14.999,12.415,10.053,21.261C242.316,125.241,238.356,126.853,233.822,127.411z"/>
<path fill="#F9BF36" d="M226.087,195.692c-5.727-0.327-11.455-0.673-17.175-1.056c-8.166-0.548-16.394-0.662-24.466-2.139
	c-7.156-1.309-13.188-7.066-12.031-16.021c0.379-2.935,2.322-4.918,4.885-6.323c2.347-1.287,4.916-1.835,7.512-2.066
	c3.47-0.309,6.966-0.306,10.448-0.498c9.531-0.526,19.069-0.437,28.607-0.429c3.705,0.003,7.387,0.342,11.061,0.78
	c0.402,0.048,0.705-0.098,0.953-0.397c0.837,0.42,1.655,0.884,2.514,1.253c5.493,2.36,8.828,7.141,8.651,12.674
	c-0.194,6.029-3.414,9.978-8.798,12.355C234.36,195.541,230.246,195.757,226.087,195.692z"/>
<path fill="#F9BF36" d="M212.656,225.249c0.269-0.363,0.92-0.833-0.235-0.773c-2.768,0.142-5.507-0.322-8.26-0.412
	c-7.616-0.247-15.215-0.823-22.741-1.902c-4.936-0.708-8.461-3.807-10.095-8.612c-1.632-4.8-0.005-8.872,3.476-12.244
	c2.306-2.233,5.365-2.716,8.427-3.101c7.476-0.939,14.945-0.131,22.421-0.039c6.542,0.081,13.043,0.495,19.523,1.345
	c0.318,0.169,0.618,0.387,0.955,0.5c3.923,1.31,6.883,3.574,7.486,7.947c0.702,5.09-0.752,9.411-5.076,12.444
	C223.786,223.733,218.276,224.702,212.656,225.249z"/>
</svg>
